<mxfile host="app.diagrams.net" modified="2020-11-18T03:37:32.749Z" agent="5.0 (X11; Linux x86_64) AppleWebKit/537.36 (KHTML, like Gecko) Chrome/85.0.4183.102 Safari/537.36" etag="HHGOWqTSMXnIpb7l0iyB" version="13.9.9" type="github">
  <diagram id="WPusR02sBAwNF2MiA7dd" name="Page-1">
    <mxGraphModel dx="1211" dy="659" grid="1" gridSize="10" guides="1" tooltips="1" connect="1" arrows="1" fold="1" page="1" pageScale="1" pageWidth="827" pageHeight="1169" math="0" shadow="0">
      <root>
        <mxCell id="0" />
        <mxCell id="1" parent="0" />
        <mxCell id="SrDWPuv18Hnwh-Ji7AU--5" style="edgeStyle=orthogonalEdgeStyle;rounded=0;orthogonalLoop=1;jettySize=auto;html=1;exitX=0.5;exitY=1;exitDx=0;exitDy=0;entryX=0.5;entryY=0;entryDx=0;entryDy=0;" edge="1" parent="1" source="SrDWPuv18Hnwh-Ji7AU--1" target="SrDWPuv18Hnwh-Ji7AU--4">
          <mxGeometry relative="1" as="geometry" />
        </mxCell>
        <mxCell id="SrDWPuv18Hnwh-Ji7AU--1" value="读取配置信息" style="rounded=0;whiteSpace=wrap;html=1;" vertex="1" parent="1">
          <mxGeometry x="330" y="120" width="120" height="60" as="geometry" />
        </mxCell>
        <mxCell id="SrDWPuv18Hnwh-Ji7AU--3" style="edgeStyle=orthogonalEdgeStyle;rounded=0;orthogonalLoop=1;jettySize=auto;html=1;exitX=0.5;exitY=1;exitDx=0;exitDy=0;entryX=0.5;entryY=0;entryDx=0;entryDy=0;" edge="1" parent="1" source="SrDWPuv18Hnwh-Ji7AU--2" target="SrDWPuv18Hnwh-Ji7AU--1">
          <mxGeometry relative="1" as="geometry" />
        </mxCell>
        <mxCell id="SrDWPuv18Hnwh-Ji7AU--2" value="有效数据帧" style="rounded=1;whiteSpace=wrap;html=1;" vertex="1" parent="1">
          <mxGeometry x="330" y="10" width="120" height="60" as="geometry" />
        </mxCell>
        <mxCell id="SrDWPuv18Hnwh-Ji7AU--6" style="edgeStyle=orthogonalEdgeStyle;rounded=0;orthogonalLoop=1;jettySize=auto;html=1;exitX=0.5;exitY=1;exitDx=0;exitDy=0;" edge="1" parent="1" source="SrDWPuv18Hnwh-Ji7AU--4">
          <mxGeometry relative="1" as="geometry">
            <mxPoint x="390" y="350" as="targetPoint" />
          </mxGeometry>
        </mxCell>
        <mxCell id="SrDWPuv18Hnwh-Ji7AU--4" value="根据配置信息创建socket链接" style="rounded=0;whiteSpace=wrap;html=1;" vertex="1" parent="1">
          <mxGeometry x="330" y="250" width="120" height="60" as="geometry" />
        </mxCell>
        <mxCell id="SrDWPuv18Hnwh-Ji7AU--7" value="发送数据" style="rounded=0;whiteSpace=wrap;html=1;" vertex="1" parent="1">
          <mxGeometry x="330" y="350" width="120" height="60" as="geometry" />
        </mxCell>
      </root>
    </mxGraphModel>
  </diagram>
</mxfile>
